# xmcd CD database file generated by Grip 3.2.0
# 
# Track frame offsets:
#       182
#       33675
#       58502
#       97417
#       121535
#       137435
#       168007
# 
# Disc length: 2609 seconds
# 
# Revision: 2
# Processed by: cddbd v1.5.2PL0 Copyright (c) Steve Scherf et al.
# Submitted via: Grip 3.2.0
# 
DISCID=550a2f07
DTITLE=Christy Doran - Fredy Studer - Stephan Wittwer - Red Twist and Tuned Arr
DTITLE=ow
DYEAR=1986
DGENRE=Jazz
TTITLE0=Canon Cannon
TTITLE1=1374
TTITLE2=Quasar
TTITLE3=Belluard
TTITLE4=Backtalk
TTITLE5=Messing
TTITLE6=D. T. E. T.
EXTD=YEAR: 1986
EXTT0=
EXTT1=
EXTT2=
EXTT3=
EXTT4=
EXTT5=
EXTT6=
PLAYORDER=
